<?xml version="1.0" standalone="no"?><!DOCTYPE svg PUBLIC "-//W3C//DTD SVG 1.1//EN" "http://www.w3.org/Graphics/SVG/1.1/DTD/svg11.dtd"><svg t="1567491339829" class="icon" viewBox="0 0 1024 1024" version="1.1" xmlns="http://www.w3.org/2000/svg" p-id="1190" xmlns:xlink="http://www.w3.org/1999/xlink" width="200" height="200"><defs><style type="text/css"></style></defs><path d="M768 661.333333h-85.333333a42.666667 42.666667 0 0 1 0-85.333333h85.333333a42.666667 42.666667 0 0 1 0 85.333333z" p-id="1191"></path><path d="M768 490.666667h-85.333333a42.666667 42.666667 0 0 1 0-85.333334h85.333333a42.666667 42.666667 0 0 1 0 85.333334z" p-id="1192"></path><path d="M341.333333 661.333333h-85.333333a42.666667 42.666667 0 0 1 0-85.333333h85.333333a42.666667 42.666667 0 0 1 0 85.333333z" p-id="1193"></path><path d="M341.333333 490.666667h-85.333333a42.666667 42.666667 0 0 1 0-85.333334h85.333333a42.666667 42.666667 0 0 1 0 85.333334z" p-id="1194"></path><path d="M469.333333 926.72a85.333333 85.333333 0 0 1-21.333333-2.56l-341.333333-85.333333a85.333333 85.333333 0 0 1-64-82.773334V246.613333a85.333333 85.333333 0 0 1 106.666666-82.773333l247.253334 72.533333a42.666667 42.666667 0 0 1-23.893334 81.92L126.293333 246.186667 128 756.053333l341.333333 85.333334V331.946667a85.333333 85.333333 0 0 1 64-82.773334l341.333334-85.333333a85.333333 85.333333 0 0 1 106.666666 82.773333v509.44a85.333333 85.333333 0 0 1-64 82.773334l-264.746666 76.8a42.666667 42.666667 0 0 1-23.893334-81.92l266.453334-77.226667 0.853333-509.866667-341.333333 85.333334v509.44a85.333333 85.333333 0 0 1-85.333334 85.333333z" p-id="1195"></path></svg>