<?xml version="1.0" standalone="no"?><!DOCTYPE svg PUBLIC "-//W3C//DTD SVG 1.1//EN" "http://www.w3.org/Graphics/SVG/1.1/DTD/svg11.dtd"><svg t="1563346584195" class="icon" viewBox="0 0 1024 1024" version="1.1" xmlns="http://www.w3.org/2000/svg" p-id="17515" xmlns:xlink="http://www.w3.org/1999/xlink" width="200" height="200"><defs><style type="text/css"></style></defs><path d="M784 860.8h-544c-41.6 0-76.8-35.2-76.8-80v-182.4h697.6v182.4c0 44.8-35.2 80-76.8 80z m-185.6-172.8H249.6v86.4h348.8v-86.4z m176 0h-86.4v86.4h86.4v-86.4zM163.2 240C163.2 195.2 198.4 160 240 160h544c41.6 0 76.8 35.2 76.8 80v313.6H163.2V240zM304 480l64-108.8 147.2 99.2 80-124.8 156.8 89.6 35.2-64-217.6-137.6-73.6 128-160-86.4-96 169.6 64 35.2z" p-id="17516"></path></svg>